0
SECTION
2
HEADER
9
$INSUNITS
70
4
9
$ACADVER
1
AC1014
9
$HANDSEED
5
FFFF
0
ENDSEC
0
SECTION
2
TABLES
0
TABLE
2
VPORT
5
8
100
AcDbSymbolTable
0
ENDTAB
0
TABLE
2
LTYPE
5
5
100
AcDbSymbolTable
0
LTYPE
5
14
100
AcDbSymbolTableRecord
100
AcDbLinetypeTableRecord
2
BYBLOCK
70
0
0
LTYPE
5
15
100
AcDbSymbolTableRecord
100
AcDbLinetypeTableRecord
2
BYLAYER
70
0
0
ENDTAB
0
TABLE
2
LAYER
5
2
100
AcDbSymbolTable
70
2
0
LAYER
5
50
100
AcDbSymbolTableRecord
100
AcDbLayerTableRecord
2
0
70
0
6
CONTINUOUS
0
ENDTAB
0
TABLE
2
STYLE
5
3
100
AcDbSymbolTable
70
1
0
STYLE
5
11
100
AcDbSymbolTableRecord
100
AcDbTextStyleTableRecord
2
STANDARD
70
0
0
ENDTAB
0
TABLE
2
VIEW
5
6
100
AcDbSymbolTable
70
0
0
ENDTAB
0
TABLE
2
UCS
5
7
100
AcDbSymbolTable
70
0
0
ENDTAB
0
TABLE
2
APPID
5
9
100
AcDbSymbolTable
70
2
0
APPID
5
12
100
AcDbSymbolTableRecord
100
AcDbRegAppTableRecord
2
ACAD
70
0
0
ENDTAB
0
TABLE
2
DIMSTYLE
5
A
100
AcDbSymbolTable
70
1
0
ENDTAB
0
TABLE
2
BLOCK_RECORD
5
1
100
AcDbSymbolTable
70
1
0
BLOCK_RECORD
5
1F
100
AcDbSymbolTableRecord
100
AcDbBlockTableRecord
2
*MODEL_SPACE
0
BLOCK_RECORD
5
1B
100
AcDbSymbolTableRecord
100
AcDbBlockTableRecord
2
*PAPER_SPACE
0
ENDTAB
0
ENDSEC
0
SECTION
2
BLOCKS
0
BLOCK
5
20
100
AcDbEntity
100
AcDbBlockBegin
2
*MODEL_SPACE
0
ENDBLK
5
21
100
AcDbEntity
100
AcDbBlockEnd
0
BLOCK
5
1C
100
AcDbEntity
100
AcDbBlockBegin
2
*PAPER_SPACE
0
ENDBLK
5
1D
100
AcDbEntity
100
AcDbBlockEnd
0
ENDSEC
0
SECTION
2
ENTITIES
0
CIRCLE
5
100
100
AcDbEntity
8
0
100
AcDbCircle
10
193.99990467271834
20
-1.9614348242755242e-06
30
0
40
4.2500000000000071
210
0
220
-0
230
1
0
CIRCLE
5
101
100
AcDbEntity
8
0
100
AcDbCircle
10
194.5042660151297
20
-20.009091396723289
30
0
40
1.0999999999999943
210
0
220
-0
230
1
0
CIRCLE
5
102
100
AcDbEntity
8
0
100
AcDbCircle
10
194.5042660151297
20
19.990908603276676
30
0
40
1.0999999999999943
210
0
220
-0
230
1
0
LWPOLYLINE
5
103
100
AcDbEntity
8
0
100
AcDbPolyline
90
42
70
1
43
0.0
10
121.77285759323807
20
-99.579290050182266
42
-0.099247827097942123
10
114.44018970721545
20
-60.957304948160044
10
114.45086288447833
20
-59.913354233057774
42
-0.15965556656505214
10
117.45007899529438
20
-51.066703706400951
10
117.50110986918997
20
-50.99866254120677
42
0.16227766016831963
10
120.5011098691879
20
-41.998662541209562
10
120.5011098691879
20
-28.200001961435056
42
-0.41421356237311902
10
123.70110986918814
20
-25.000001961435053
10
142.99990467271724
20
-25.000001961436489
42
0.41421356237311702
10
157.99990467271837
20
-10.000001961436485
10
157.99990467271837
20
9.9999980385668579
42
0.41421356237311696
10
142.99990467271724
20
24.999998038566858
10
123.70110986918814
20
24.999998038565437
42
-0.41421356237311618
10
120.50110986918793
20
28.199998038565425
10
120.50110986918793
20
41.998658618339945
42
0.16227766016831949
10
117.50110986919
20
50.998658618337139
10
117.45007899529439
20
51.066699783531348
42
-0.15965556656505192
10
114.45086288447837
20
59.913350310188143
10
114.44018970721552
20
60.957301025290448
42
-0.099247827097944136
10
121.77285759323821
20
99.57928612731267
10
127.20656760848932
20
112.97034013223588
42
-0.30594803261905412
10
134.63789299022528
20
117.96234664887201
10
135.21389773349563
20
117.9610249386555
10
135.78990296075517
20
117.96211551605333
42
-0.30594803261796438
10
143.21922460788335
20
112.96712744255309
10
154.64587528531834
20
84.774363815869478
42
0.067657667769725247
10
158.66288669994685
20
77.761438239571405
10
175.79779357274458
20
55.4673344849597
42
0.11344776106037388
10
186.16753018110313
20
46.916185284372858
10
194.47204062771794
20
42.763930061065395
42
-0.28407904384041011
10
199.99990467271834
20
33.819658151066257
10
199.9999046727184
20
-33.819662073935881
42
-0.28407904384041011
10
194.47204062771794
20
-42.763933983935026
10
186.16753018110313
20
-46.916189207242468
42
0.1134477610603742
10
175.79779357274458
20
-55.467338407829381
10
158.66288669994651
20
-77.761442162441497
42
0.067657667769725441
10
154.645875285318
20
-84.774367738739599
10
143.21922460791404
20
-112.96713136542266
42
-0.30594803261901399
10
135.78990296075511
20
-117.96211943892291
10
135.21389773349554
20
-117.96102886152509
10
134.63789299022403
20
-117.96235057174161
42
-0.30594803261901282
10
127.20656760848928
20
-112.97034405510546
0
CIRCLE
5
104
100
AcDbEntity
8
0
100
AcDbCircle
10
124.50110986918801
20
27.999998038565188
30
0
40
1.0999999999999943
210
0
220
-0
230
1
0
LWPOLYLINE
5
105
100
AcDbEntity
8
0
100
AcDbPolyline
90
8
70
1
43
0.0
10
165.99990467271834
20
28.299998038565192
10
165.99990467271834
20
-7.8000019614347904
42
0.41421356237309503
10
169.19990467271833
20
-11.000001961434791
10
184.79990467271836
20
-11.000001961434805
42
0.41421356237309503
10
187.99990467271837
20
-7.8000019614348037
10
187.99990467271837
20
28.299998038565196
42
0.41421356237309503
10
184.79990467271836
20
31.499998038565199
10
169.19990467271833
20
31.499998038565195
42
0.41421356237309503
0
CIRCLE
5
106
100
AcDbEntity
8
0
100
AcDbCircle
10
124.50110986918801
20
-28.000001961434819
30
0
40
1.0999999999999943
210
0
220
-0
230
1
0
CIRCLE
5
107
100
AcDbEntity
8
0
100
AcDbCircle
10
122.50110986918787
20
54.998658618338013
30
0
40
2.1000000000000085
210
-3.4442485969745306e-62
220
-2.4651903288156619e-32
230
1
0
CIRCLE
5
108
100
AcDbEntity
8
0
100
AcDbCircle
10
162.50110986918784
20
54.998658618338013
30
0
40
2.1000000000000085
210
-3.4442485969745306e-62
220
-2.4651903288156619e-32
230
1
0
LWPOLYLINE
5
109
100
AcDbEntity
8
0
100
AcDbPolyline
90
6
70
1
43
0.0
10
148.19577869631172
20
62.772612706468401
10
139.21988357953268
20
74.451085108420315
42
0.72016488007281343
10
133.48286206540001
20
72.468326124304312
10
133.68961669174388
20
52.24551573617606
42
0.65981893823535143
10
139.12262292346688
20
49.986301781299701
10
147.89176341390203
20
58.530639767476025
42
0.38030994748865243
0
LWPOLYLINE
5
110
100
AcDbEntity
8
0
100
AcDbPolyline
90
3
70
1
43
0.0
10
145.1900523803084
20
47.420861434133236
10
145.35680842360841
20
47.429028089755562
10
145.3495995796431
20
47.576226447569439
0
LWPOLYLINE
5
111
100
AcDbEntity
8
0
100
AcDbPolyline
90
2
70
1
43
0.0
10
144.09475449163062
20
-93.287332399443528
42
-1.0009859273843973
10
140.8320961010464
20
-90.642518021043855
42
-1.000985927170212
0
CIRCLE
5
112
100
AcDbEntity
8
0
100
AcDbCircle
10
127.50110986918784
20
-91.998662541207636
30
0
40
2.1000000000000085
210
-3.4442485969745306e-62
220
-2.4651903288156619e-32
230
1
0
CIRCLE
5
113
100
AcDbEntity
8
0
100
AcDbCircle
10
135.19739470393594
20
-111.97940727576453
30
0
40
2.1000000000000085
210
-3.4442485969745306e-62
220
-2.4651903288156619e-32
230
1
0
CIRCLE
5
114
100
AcDbEntity
8
0
100
AcDbCircle
10
193.99990467271837
20
10.749998038565327
30
0
40
1.6000000000000014
210
0
220
-0
230
1
0
LWPOLYLINE
5
115
100
AcDbEntity
8
0
100
AcDbPolyline
90
6
70
1
43
0.0
10
147.891763413902
20
-58.530643690345642
10
139.12262292346679
20
-49.986305704169297
42
0.65981893823535098
10
133.68961669174385
20
-52.245519659045669
10
133.48286206539998
20
-72.468330047173964
42
0.72016488007281443
10
139.21988357953262
20
-74.451089031289968
10
148.19577869631169
20
-62.772616629338025
42
0.38030994748865121
0
CIRCLE
5
116
100
AcDbEntity
8
0
100
AcDbCircle
10
191.99990467271834
20
-27.000001982443401
30
0
40
2.1000000000000085
210
-3.4442485969745306e-62
220
-2.4651903288156619e-32
230
1
0
CIRCLE
5
117
100
AcDbEntity
8
0
100
AcDbCircle
10
162.50110986918784
20
-54.998662541207615
30
0
40
2.1000000000000085
210
-3.4442485969745306e-62
220
-2.4651903288156619e-32
230
1
0
CIRCLE
5
118
100
AcDbEntity
8
0
100
AcDbCircle
10
181.99990467271834
20
-14.000001961434789
30
0
40
2.1000000000000085
210
-3.4442485969745306e-62
220
-2.4651903288156619e-32
230
1
0
CIRCLE
5
119
100
AcDbEntity
8
0
100
AcDbCircle
10
181.99990467271834
20
34.499998228290934
30
0
40
2.1000000000000085
210
-3.4442485969745306e-62
220
-2.4651903288156619e-32
230
1
0
CIRCLE
5
120
100
AcDbEntity
8
0
100
AcDbCircle
10
171.99990467271834
20
34.499998228290934
30
0
40
2.1000000000000085
210
-3.4442485969745306e-62
220
-2.4651903288156619e-32
230
1
0
LWPOLYLINE
5
121
100
AcDbEntity
8
0
100
AcDbPolyline
90
6
70
1
43
0.0
10
161.99990467271832
20
-35.200001982443581
10
161.99990467271834
20
-41.822293218443846
42
0.55753651583505082
10
166.63098817831823
20
-44.684460229643562
10
179.87557065031882
20
-38.062168993643212
42
0.7914183192462283
10
178.44448714471892
20
-32.000001982443486
10
165.19990467271833
20
-32.000001982443564
42
0.41421356237309304
0
CIRCLE
5
122
100
AcDbEntity
8
0
100
AcDbCircle
10
129.17723603688796
20
-32.914033527390906
30
0
40
1.6000000000000014
210
0
220
-0
230
1
0
CIRCLE
5
123
100
AcDbEntity
8
0
100
AcDbCircle
10
171.99990467271834
20
-14.000001961434789
30
0
40
2.1000000000000085
210
-3.4442485969745306e-62
220
-2.4651903288156619e-32
230
1
0
CIRCLE
5
124
100
AcDbEntity
8
0
100
AcDbCircle
10
140.99999686373923
20
-33.000002363765915
30
0
40
1.6000000000000014
210
0
220
-0
230
1
0
CIRCLE
5
125
100
AcDbEntity
8
0
100
AcDbCircle
10
122.50110986918784
20
-54.998662541207615
30
0
40
2.1000000000000085
210
-3.4442485969745306e-62
220
-2.4651903288156619e-32
230
1
0
LWPOLYLINE
5
126
100
AcDbEntity
8
0
100
AcDbPolyline
90
3
70
1
43
0.0
10
145.35680842360838
20
-47.429032012625179
10
145.19005238030837
20
-47.420865357002853
10
145.34959957964307
20
-47.576230370439063
0
CIRCLE
5
127
100
AcDbEntity
8
0
100
AcDbCircle
10
193.99990467271837
20
-10.750001961434823
30
0
40
1.6000000000000014
210
0
220
-0
230
1
0
CIRCLE
5
128
100
AcDbEntity
8
0
100
AcDbCircle
10
161.99990467271834
20
-1.9614348038751762e-06
30
0
40
2.1000000000000085
210
-3.4442485969745306e-62
220
-2.4651903288156619e-32
230
1
0
CIRCLE
5
129
100
AcDbEntity
8
0
100
AcDbCircle
10
140.99999686373923
20
32.99999844089632
30
0
40
1.6000000000000014
210
0
220
-0
230
1
0
CIRCLE
5
130
100
AcDbEntity
8
0
100
AcDbCircle
10
129.17723603688796
20
32.914029604521275
30
0
40
1.6000000000000014
210
0
220
-0
230
1
0
CIRCLE
5
131
100
AcDbEntity
8
0
100
AcDbCircle
10
135.19739470393597
20
111.97940335289493
30
0
40
2.1000000000000085
210
-3.4442485969745306e-62
220
-2.4651903288156619e-32
230
1
0
CIRCLE
5
132
100
AcDbEntity
8
0
100
AcDbCircle
10
127.50110986918787
20
91.998658618338027
30
0
40
2.1000000000000085
210
-3.4442485969745306e-62
220
-2.4651903288156619e-32
230
1
0
LWPOLYLINE
5
133
100
AcDbEntity
8
0
100
AcDbPolyline
90
2
70
1
43
0.0
10
144.09475449004378
20
93.287328857984576
42
-1.0009859277711266
10
140.83209610104501
20
90.642514477624431
42
-1.0009859267835672
0
CIRCLE
5
134
100
AcDbEntity
8
0
100
AcDbCircle
10
191.99990467271834
20
26.999998059573773
30
0
40
2.1000000000000085
210
-3.4442485969745306e-62
220
-2.4651903288156619e-32
230
1
0
ENDSEC
0
SECTION
2
OBJECTS
0
DICTIONARY
5
C
100
AcDbDictionary
3
ACAD_GROUP
350
D
3
ACAD_MLINESTYLE
350
17
0
DICTIONARY
5
D
100
AcDbDictionary
0
DICTIONARY
5
1A
330
C
100
AcDbDictionary
0
DICTIONARY
5
17
100
AcDbDictionary
0
ENDSEC
0
EOF
