0
SECTION
2
HEADER
9
$INSUNITS
70
4
9
$ACADVER
1
AC1014
9
$HANDSEED
5
FFFF
0
ENDSEC
0
SECTION
2
TABLES
0
TABLE
2
VPORT
5
8
100
AcDbSymbolTable
0
ENDTAB
0
TABLE
2
LTYPE
5
5
100
AcDbSymbolTable
0
LTYPE
5
14
100
AcDbSymbolTableRecord
100
AcDbLinetypeTableRecord
2
BYBLOCK
70
0
0
LTYPE
5
15
100
AcDbSymbolTableRecord
100
AcDbLinetypeTableRecord
2
BYLAYER
70
0
0
ENDTAB
0
TABLE
2
LAYER
5
2
100
AcDbSymbolTable
70
2
0
LAYER
5
50
100
AcDbSymbolTableRecord
100
AcDbLayerTableRecord
2
0
70
0
6
CONTINUOUS
0
ENDTAB
0
TABLE
2
STYLE
5
3
100
AcDbSymbolTable
70
1
0
STYLE
5
11
100
AcDbSymbolTableRecord
100
AcDbTextStyleTableRecord
2
STANDARD
70
0
0
ENDTAB
0
TABLE
2
VIEW
5
6
100
AcDbSymbolTable
70
0
0
ENDTAB
0
TABLE
2
UCS
5
7
100
AcDbSymbolTable
70
0
0
ENDTAB
0
TABLE
2
APPID
5
9
100
AcDbSymbolTable
70
2
0
APPID
5
12
100
AcDbSymbolTableRecord
100
AcDbRegAppTableRecord
2
ACAD
70
0
0
ENDTAB
0
TABLE
2
DIMSTYLE
5
A
100
AcDbSymbolTable
70
1
0
ENDTAB
0
TABLE
2
BLOCK_RECORD
5
1
100
AcDbSymbolTable
70
1
0
BLOCK_RECORD
5
1F
100
AcDbSymbolTableRecord
100
AcDbBlockTableRecord
2
*MODEL_SPACE
0
BLOCK_RECORD
5
1B
100
AcDbSymbolTableRecord
100
AcDbBlockTableRecord
2
*PAPER_SPACE
0
ENDTAB
0
ENDSEC
0
SECTION
2
BLOCKS
0
BLOCK
5
20
100
AcDbEntity
100
AcDbBlockBegin
2
*MODEL_SPACE
0
ENDBLK
5
21
100
AcDbEntity
100
AcDbBlockEnd
0
BLOCK
5
1C
100
AcDbEntity
100
AcDbBlockBegin
2
*PAPER_SPACE
0
ENDBLK
5
1D
100
AcDbEntity
100
AcDbBlockEnd
0
ENDSEC
0
SECTION
2
ENTITIES
0
LWPOLYLINE
5
100
100
AcDbEntity
8
0
100
AcDbPolyline
90
31
70
1
43
0.0
10
-103.79055402494583
20
-39.870062499247425
42
-0.048018730330888916
10
-122.86568929939622
20
-41.70622387085325
10
-142.23974775199784
20
-41.7062238708533
42
-0.41421356237309503
10
-149.23974775199787
20
-34.706223870853272
10
-149.23974775199787
20
-34.634427101128779
42
-0.37282469327269674
10
-143.23974775199787
20
-27.706223870853268
10
-131.41698692513455
20
-27.000255034478222
42
0.38217559807449619
10
-118.07274775198577
20
-12.0919199133366
10
-118.07274775198577
20
10.919472976292301
42
0.3821755980744963
10
-131.41698692513455
20
25.827808097433934
10
-143.23974775199784
20
26.533776933808998
42
-0.37282469327269263
10
-149.23974775199778
20
33.46198016408448
10
-149.23974775199778
20
33.605573703533466
42
-0.37176094483909655
10
-143.26563163628941
20
40.52999153147762
10
138.76340194202382
20
40.529991531477776
42
-1.0014089899499028
10
138.74053825765037
20
24.291564574640262
10
126.94064111517244
20
24.324793120664836
42
0.38217559807136181
10
113.59640194212108
20
9.4164579996000963
10
113.59640194203297
20
-10.588904936502406
42
0.38217559807557933
10
126.94064111517244
20
-25.497240057709064
10
138.7405382576498
20
-25.464011511684458
42
-1.0014089899499421
10
138.76340194202368
20
-41.702438468522026
10
98.956401942032727
20
-41.702438468522075
42
-0.41421356237306134
10
88.956401942032741
20
-31.702438468523205
10
88.956401942031135
20
-17.286223468521754
42
0.41421356237306434
10
85.756401942031118
20
-14.08622346852211
10
3.9564019420309164
20
-14.086223468521899
42
0.28525023167527619
10
-9.4889504148235897
20
-22.436223468519788
42
-0.28525023167527619
10
-22.934302771678048
20
-30.786223468517679
10
-47.417656510570517
20
-30.786223468517679
42
0.048018730330888222
10
-66.492791785021041
20
-32.622384840123509
0
LWPOLYLINE
5
101
100
AcDbEntity
8
0
100
AcDbPolyline
90
29
70
1
43
0.0
10
-81.414098746889536
20
12.406934944646174
42
-0.18575737109948515
10
-82.239502077648069
20
10.261873020498696
42
0.64998269667187336
10
-79.864905408406585
20
4.9168110963512239
10
-53.866045530236491
20
4.9168110963512284
42
0.23296338677850856
10
-51.32882263896343
20
6.1668110963512301
42
-0.23296338677850933
10
-48.79159974769037
20
7.4168110963512426
10
24.963402253911223
20
7.4168110963512994
42
-0.23296338677851083
10
27.500625145184294
20
6.1668110963512763
42
0.23296338677850981
10
30.037848036457362
20
4.9168110963512612
10
56.036707914627456
20
4.9168110963512586
42
0.64998269667187536
10
58.411304583868933
20
10.261873020498749
42
-0.18575737109948701
10
57.585901253110414
20
12.406934944646222
10
57.585901253110436
20
26.794315347019989
42
-0.23296338677850381
10
58.835901253110436
20
29.331538238293039
42
0.23296338677850842
10
60.085901253110436
20
31.868761129566092
10
60.085901253110443
20
32.716814346219188
42
0.41421356237309465
10
56.885901253110447
20
35.916814346219191
10
31.208400252309673
20
35.91681434621924
42
0.23296338677851131
10
28.671177361036612
20
34.66681434621924
42
-0.2329633867785092
10
26.133954469763559
20
33.416814346219248
10
-48.791599747690448
20
33.416814346219361
42
-0.23296338677849879
10
-51.32882263896343
20
34.66681434621929
42
0.23296338677849973
10
-53.86604553023642
20
35.916814346219212
10
-86.214098746889562
20
35.916814346219148
42
0.41421356237309587
10
-89.414098746889579
20
32.716814346219138
10
-89.41409874688955
20
23.616812721285175
42
0.41421356237309587
10
-86.214098746889519
20
20.416812721285179
10
-84.614098746889539
20
20.416812721285169
42
-0.41421356237309359
10
-81.414098746889536
20
17.21681272128518
0
CIRCLE
5
102
100
AcDbEntity
8
0
100
AcDbCircle
10
122.26451494747249
20
27.416791508247023
30
0
40
1.0999999999999943
210
4.9303806576313238e-32
220
4.9303806576313221e-32
230
1
0
CIRCLE
5
103
100
AcDbEntity
8
0
100
AcDbCircle
10
-131.41698692513452
20
32.327808097433959
30
0
40
1.6000000000000014
210
4.9303806576313238e-32
220
2.4651903288156605e-32
230
1
0
CIRCLE
5
104
100
AcDbEntity
8
0
100
AcDbCircle
10
-57.04359805796912
20
-17.786223468521843
30
0
40
10
210
4.9303806576313238e-32
220
2.4651903288156605e-32
230
1
0
CIRCLE
5
105
100
AcDbEntity
8
0
100
AcDbCircle
10
-27.043598057969117
20
-17.786223468517683
30
0
40
9.5
210
4.9303806576313249e-32
220
4.9303806576313232e-32
230
1
0
CIRCLE
5
106
100
AcDbEntity
8
0
100
AcDbCircle
10
-126.7408607574346
20
27.413776531477868
30
0
40
1.0999999999999943
210
4.9303806576313238e-32
220
4.9303806576313221e-32
230
1
0
CIRCLE
5
107
100
AcDbEntity
8
0
100
AcDbCircle
10
122.26451494747249
20
-28.58320849175297
30
0
40
1.0999999999999943
210
4.9303806576313238e-32
220
4.9303806576313221e-32
230
1
0
CIRCLE
5
108
100
AcDbEntity
8
0
100
AcDbCircle
10
-131.41698692513455
20
-33.500255034478222
30
0
40
1.6000000000000014
210
4.9303806576313238e-32
220
2.4651903288156605e-32
230
1
0
CIRCLE
5
109
100
AcDbEntity
8
0
100
AcDbCircle
10
126.94064111517244
20
32.33082307420311
30
0
40
1.6000000000000014
210
4.9303806576313238e-32
220
2.4651903288156605e-32
230
1
0
LWPOLYLINE
5
110
100
AcDbEntity
8
0
100
AcDbPolyline
90
8
70
1
43
0.0
10
90.956401942030823
20
15.423776531477911
10
90.956401942030652
20
-16.596223468522101
42
0.41421356237309631
10
95.946401942030661
20
-21.586223468522125
10
95.966401942030728
20
-21.586223468522125
42
0.41421356237309398
10
100.95640194203072
20
-16.59622346852214
10
100.95640194203085
20
15.42377653147787
42
0.41421356237309609
10
95.966401942030842
20
20.41377653147789
10
95.946401942030803
20
20.41377653147789
42
0.4142135623730937
0
CIRCLE
5
111
100
AcDbEntity
8
0
100
AcDbCircle
10
110.59640194203072
20
-11.086223468522117
30
0
40
1.6000000000000014
210
4.9303806576313238e-32
220
2.4651903288156605e-32
230
1
0
CIRCLE
5
112
100
AcDbEntity
8
0
100
AcDbCircle
10
-143.23974775198579
20
32.413776933808968
30
0
40
1.6000000000000014
210
4.9303806576313238e-32
220
2.4651903288156605e-32
230
1
0
CIRCLE
5
113
100
AcDbEntity
8
0
100
AcDbCircle
10
-115.07274775198579
20
9.9137765314778612
30
0
40
1.6000000000000014
210
4.9303806576313238e-32
220
2.4651903288156605e-32
230
1
0
CIRCLE
5
114
100
AcDbEntity
8
0
100
AcDbCircle
10
138.76340194202371
20
32.416791910578155
30
0
40
1.6000000000000014
210
4.9303806576313238e-32
220
2.4651903288156605e-32
230
1
0
CIRCLE
5
115
100
AcDbEntity
8
0
100
AcDbCircle
10
-115.07274775198579
20
-11.086223468522149
30
0
40
1.6000000000000014
210
4.9303806576313238e-32
220
2.4651903288156605e-32
230
1
0
CIRCLE
5
116
100
AcDbEntity
8
0
100
AcDbCircle
10
85.956401942030695
20
9.913776531477863
30
0
40
1.6000000000000014
210
4.9303806576313238e-32
220
2.4651903288156605e-32
230
1
0
CIRCLE
5
117
100
AcDbEntity
8
0
100
AcDbCircle
10
110.59640194203072
20
9.9137765314778825
30
0
40
1.6000000000000014
210
4.9303806576313238e-32
220
2.4651903288156605e-32
230
1
0
CIRCLE
5
118
100
AcDbEntity
8
0
100
AcDbCircle
10
126.94064111517241
20
-33.497240057709064
30
0
40
1.6000000000000014
210
4.9303806576313238e-32
220
2.4651903288156605e-32
230
1
0
CIRCLE
5
119
100
AcDbEntity
8
0
100
AcDbCircle
10
-126.7408607574346
20
-28.586223468522135
30
0
40
1.0999999999999943
210
4.9303806576313238e-32
220
4.9303806576313221e-32
230
1
0
CIRCLE
5
120
100
AcDbEntity
8
0
100
AcDbCircle
10
85.956401942030695
20
-11.086223468522103
30
0
40
1.6000000000000014
210
4.9303806576313238e-32
220
2.4651903288156605e-32
230
1
0
CIRCLE
5
121
100
AcDbEntity
8
0
100
AcDbCircle
10
138.76340194202368
20
-33.583208894084073
30
0
40
1.6000000000000014
210
4.9303806576313238e-32
220
2.4651903288156605e-32
230
1
0
CIRCLE
5
122
100
AcDbEntity
8
0
100
AcDbCircle
10
-143.23974775198582
20
-33.586223870853267
30
0
40
1.6000000000000014
210
4.9303806576313238e-32
220
2.4651903288156605e-32
230
1
0
LWPOLYLINE
5
123
100
AcDbEntity
8
0
100
AcDbPolyline
90
6
70
1
43
0.0
10
81.230918542436996
20
34.423776531478055
10
70.156401942030925
20
34.423776531478055
42
0.41421356237309426
10
66.956401942030922
20
31.223776531478062
10
66.956401942030908
20
20.149259931071974
42
0.66817863791929921
10
72.419143641827844
20
17.886518231275012
10
83.493660242233986
20
28.961034831681115
42
0.66817863791929955
0
LWPOLYLINE
5
124
100
AcDbEntity
8
0
100
AcDbPolyline
90
8
70
1
43
0.0
10
-88.572357322563349
20
-7.6512781760950386
10
-88.572357322563349
20
5.9487218239049602
42
0.41421356237309503
10
-91.772357322563352
20
9.1487218239049604
10
-100.37235732256335
20
9.1487218239049621
42
0.41421356237309503
10
-103.57235732256335
20
5.9487218239049602
10
-103.57235732256335
20
-7.6512781760950386
42
0.41421356237309515
10
-100.37235732256335
20
-10.85127817609504
10
-91.772357322563352
20
-10.85127817609504
42
0.41421356237309515
0
CIRCLE
5
125
100
AcDbEntity
8
0
100
AcDbCircle
10
113.63653121737592
20
-34.032088173767512
30
0
40
1.6000000000000014
210
4.9303806576313123e-32
220
2.4651903288156838e-32
230
1
0
CIRCLE
5
126
100
AcDbEntity
8
0
100
AcDbCircle
10
-11.914200217766295
20
-9.0831921551808286
30
0
40
2.1000000000000041
210
9.8607613152626476e-32
220
2.4651903288156592e-32
230
1
0
ENDSEC
0
SECTION
2
OBJECTS
0
DICTIONARY
5
C
100
AcDbDictionary
3
ACAD_GROUP
350
D
3
ACAD_MLINESTYLE
350
17
0
DICTIONARY
5
D
100
AcDbDictionary
0
DICTIONARY
5
1A
330
C
100
AcDbDictionary
0
DICTIONARY
5
17
100
AcDbDictionary
0
ENDSEC
0
EOF
