0
SECTION
2
HEADER
9
$INSUNITS
70
4
9
$ACADVER
1
AC1014
9
$HANDSEED
5
FFFF
0
ENDSEC
0
SECTION
2
TABLES
0
TABLE
2
VPORT
5
8
100
AcDbSymbolTable
0
ENDTAB
0
TABLE
2
LTYPE
5
5
100
AcDbSymbolTable
0
LTYPE
5
14
100
AcDbSymbolTableRecord
100
AcDbLinetypeTableRecord
2
BYBLOCK
70
0
0
LTYPE
5
15
100
AcDbSymbolTableRecord
100
AcDbLinetypeTableRecord
2
BYLAYER
70
0
0
ENDTAB
0
TABLE
2
LAYER
5
2
100
AcDbSymbolTable
70
2
0
LAYER
5
50
100
AcDbSymbolTableRecord
100
AcDbLayerTableRecord
2
0
70
0
6
CONTINUOUS
0
ENDTAB
0
TABLE
2
STYLE
5
3
100
AcDbSymbolTable
70
1
0
STYLE
5
11
100
AcDbSymbolTableRecord
100
AcDbTextStyleTableRecord
2
STANDARD
70
0
0
ENDTAB
0
TABLE
2
VIEW
5
6
100
AcDbSymbolTable
70
0
0
ENDTAB
0
TABLE
2
UCS
5
7
100
AcDbSymbolTable
70
0
0
ENDTAB
0
TABLE
2
APPID
5
9
100
AcDbSymbolTable
70
2
0
APPID
5
12
100
AcDbSymbolTableRecord
100
AcDbRegAppTableRecord
2
ACAD
70
0
0
ENDTAB
0
TABLE
2
DIMSTYLE
5
A
100
AcDbSymbolTable
70
1
0
ENDTAB
0
TABLE
2
BLOCK_RECORD
5
1
100
AcDbSymbolTable
70
1
0
BLOCK_RECORD
5
1F
100
AcDbSymbolTableRecord
100
AcDbBlockTableRecord
2
*MODEL_SPACE
0
BLOCK_RECORD
5
1B
100
AcDbSymbolTableRecord
100
AcDbBlockTableRecord
2
*PAPER_SPACE
0
ENDTAB
0
ENDSEC
0
SECTION
2
BLOCKS
0
BLOCK
5
20
100
AcDbEntity
100
AcDbBlockBegin
2
*MODEL_SPACE
0
ENDBLK
5
21
100
AcDbEntity
100
AcDbBlockEnd
0
BLOCK
5
1C
100
AcDbEntity
100
AcDbBlockBegin
2
*PAPER_SPACE
0
ENDBLK
5
1D
100
AcDbEntity
100
AcDbBlockEnd
0
ENDSEC
0
SECTION
2
ENTITIES
0
LWPOLYLINE
5
100
100
AcDbEntity
8
0
100
AcDbPolyline
90
6
70
1
43
0.0
10
-197.24393797001343
20
-179.63782382087729
42
-0.34366912232474911
10
-195.26274653257903
20
-183.03687236913149
10
-198.58361936565356
20
-207.61133133388336
42
-0.72549891576477066
10
-204.56806002441326
20
-208.70776642932
10
-222.5052096533945
20
-175.61736140908121
42
-0.70210518611550443
10
-218.50196043206938
20
-171.12187776539037
0
LWPOLYLINE
5
101
100
AcDbEntity
8
0
100
AcDbPolyline
90
6
70
1
43
0.0
10
-217.64258447465244
20
-165.00260927966977
42
-0.6738831612723124
10
-217.66518210367735
20
-159.07073936301208
10
-195.64762238625798
20
-150.05525046154088
42
-0.57713844836537376
10
-191.26386464004139
20
-153.44514636435332
10
-193.55031784311336
20
-170.36490006708559
42
-0.48846168061055711
10
-197.91147796030501
20
-172.90687408093081
0
LWPOLYLINE
5
102
100
AcDbEntity
8
0
100
AcDbPolyline
90
10
70
1
43
0.0
10
-80.11916543709151
20
-164.62711085022974
42
-0.28531983764764773
10
-77.250458433195462
20
-162.84503896046579
10
-39.931542117319474
20
-162.84503896046579
42
-0.28531988178664436
10
-37.06283488192534
20
-164.6271113185893
10
-31.665282103256956
20
-175.54727272336737
42
-0.39973665403920527
10
-32.975355195921665
20
-179.75995609859848
10
-57.032363166600732
20
-193.17653971895137
42
-0.25999962367512292
10
-60.149631612700432
20
-193.17653962936194
10
-84.206645270059568
20
-179.75995102468062
42
-0.39973668471144486
10
-85.51671797058529
20
-175.54726727067941
0
LWPOLYLINE
5
103
100
AcDbEntity
8
0
100
AcDbPolyline
90
8
70
1
43
0.0
10
-105.33830099302209
20
-199.85196486503426
42
-0.37719243537700509
10
-109.24705089922821
20
-201.46030685600746
10
-137.95785715391258
20
-191.5932198848995
42
-0.50457420941961861
10
-139.50457516174009
20
-186.6831589248319
10
-119.88473961900084
20
-159.74183282575947
42
-0.44125209387365089
10
-115.18588931273398
20
-159.22165230007454
10
-96.162560072107382
20
-175.935233944011
42
-0.33945425881090346
10
-95.405942464340626
20
-179.75713343879036
0
LWPOLYLINE
5
104
100
AcDbEntity
8
0
100
AcDbPolyline
90
6
70
1
43
0.0
10
-150.9488594136877
20
-159.57759394011919
42
-0.46407726935768695
10
-147.79348448944154
20
-155.84504741176042
10
-133.2324745132982
20
-155.84504504488874
42
-0.61318335882897779
10
-130.6457130805004
20
-160.92883589867949
10
-142.46706067467221
20
-177.16152958111593
42
-0.66412483896618246
10
-148.20919703171617
20
-175.81028525568388
0
LWPOLYLINE
5
105
100
AcDbEntity
8
0
100
AcDbPolyline
90
6
70
1
43
0.0
10
-6.1220704949537659
20
-201.89082881114751
42
-0.51336774356412351
10
-11.253519427969556
20
-201.04601475762797
10
-17.313832602915145
20
-188.78497711852128
42
-0.6809495362037099
10
-13.313506556028511
20
-184.37381729605818
10
-0.018467073946507595
20
-189.40012862802845
42
-0.54459772468879009
10
1.1126558121826513
20
-194.65610250401107
0
LWPOLYLINE
5
106
100
AcDbEntity
8
0
100
AcDbPolyline
90
6
70
1
43
0.0
10
68.084491671203068
20
-172.90687408093081
42
-0.48846168061055667
10
63.72333155401143
20
-170.36490006708559
10
61.436878350939494
20
-153.44514636435332
42
-0.57713844836537265
10
65.820636097156068
20
-150.05525046154085
10
87.838195814575357
20
-159.07073936301205
42
-0.6738831612723073
10
87.815598185550442
20
-165.00260927966977
0
LWPOLYLINE
5
107
100
AcDbEntity
8
0
100
AcDbPolyline
90
6
70
1
43
0.0
10
-75.283294763831279
20
-217.84503968055537
42
-0.77324760127203562
10
-76.841928907154426
20
-211.85028394753198
10
-60.149635094574293
20
-202.54099843136163
42
-0.25999962373182417
10
-57.032366647880828
20
-202.54099852061987
10
-40.340075082450952
20
-211.85028403679019
42
-0.77324757839514124
10
-41.898709385821263
20
-217.84503968055537
0
LWPOLYLINE
5
108
100
AcDbEntity
8
0
100
AcDbPolyline
90
6
70
1
43
0.0
10
-88.73803673226972
20
-155.84503471167375
42
-0.55603290945332606
10
-85.869329990956146
20
-160.46296282697728
10
-89.25891354952627
20
-167.32066032329158
42
-0.49314542603129358
10
-94.239709944089682
20
-168.30670358786131
10
-102.04511380320255
20
-161.44900518168228
42
-0.69177459106126615
10
-99.933024149952686
20
-155.845033801809
0
LWPOLYLINE
5
109
100
AcDbEntity
8
0
100
AcDbPolyline
90
8
70
1
43
0.0
10
-177.532686383147
20
-169.75912731618021
42
-0.23664800681220749
10
-175.91524293144238
20
-167.39018073886299
10
-162.3296232572869
20
-159.84467998735963
42
-0.51762118724878903
10
-157.6205154872768
20
-162.10961730352238
10
-154.26724229084192
20
-181.97799563096936
42
-0.57648381712034058
10
-158.5313047130571
20
-185.51234381587159
10
-176.2510435383731
20
-178.96772630489764
42
-0.35129666615412913
10
-178.31353233787263
20
-175.53738738114981
0
LWPOLYLINE
5
110
100
AcDbEntity
8
0
100
AcDbPolyline
90
8
70
1
43
0.0
10
-30.298462469384013
20
-185.89301151712763
42
-0.42884019955943736
10
-25.871121090666751
20
-187.26983960827457
10
-15.519289587386018
20
-208.21334409750347
42
-0.32155585307333839
10
-16.125255122983191
20
-211.89401343917692
10
-18.161406541743506
20
-213.93016485793723
42
-0.33531545411277486
10
-21.982782544910826
20
-214.46217880190548
10
-46.742801800158944
20
-200.65352420649049
42
-0.58730206131051199
10
-46.742801640111779
20
-195.06401282970188
0
LWPOLYLINE
5
111
100
AcDbEntity
8
0
100
AcDbPolyline
90
8
70
1
43
0.0
10
-101.05675116459993
20
-211.89400713183977
42
-0.32155589810992158
10
-101.66271646869905
20
-208.21333732180676
10
-91.310882258033232
20
-187.26983596307872
42
-0.42884016818656484
10
-86.883540950766829
20
-185.89300842954967
10
-70.43919646377033
20
-195.06401394162407
42
-0.58730206138195151
10
-70.439196624411323
20
-200.65352531874385
10
-95.199217522786654
20
-214.4621789646844
42
-0.33531543812721132
10
-99.020593365312948
20
-213.93016493112674
0
LWPOLYLINE
5
112
100
AcDbEntity
8
0
100
AcDbPolyline
90
8
70
1
43
0.0
10
-260.03905841413268
20
-187.86769096290357
42
-0.41421356237310153
10
-263.23905841413273
20
-191.06769096290355
10
-264.83905841413269
20
-191.06769096290355
42
-0.41421356237310153
10
-268.03905841413268
20
-187.86769096290357
10
-268.03905841413268
20
-169.26769096290357
42
-0.41421356237310153
10
-264.83905841413269
20
-166.06769096290355
10
-263.23905841413273
20
-166.06769096290355
42
-0.41421356237310153
10
-260.03905841413268
20
-169.26769096290357
0
LWPOLYLINE
5
113
100
AcDbEntity
8
0
100
AcDbPolyline
90
8
70
1
43
0.0
10
138.23890314420606
20
-195.07628960516288
42
-0.56824915407568732
10
133.51393125301638
20
-197.88781745204454
10
108.54791973412995
20
-184.35461699773643
42
-0.41421356237308626
10
107.25962721532451
20
-180.01637975364872
10
113.88064372453692
20
-167.80194644248655
42
-0.27530755862506939
10
116.69564564054937
20
-166.12691927657914
10
135.05461165824829
20
-166.13688495259939
42
-0.41421356237300722
10
138.25287415223099
20
-169.3386215157129
0
LWPOLYLINE
5
114
100
AcDbEntity
8
0
100
AcDbPolyline
90
6
70
1
43
0.0
10
74.741073735311289
20
-208.70776642932003
42
-0.72549891576476444
10
68.75663307655168
20
-207.61133133388336
10
65.435760243477105
20
-183.03687236913146
42
-0.34366912232474217
10
67.416951680911467
20
-179.63782382087729
10
88.674974142967386
20
-171.12187776539042
42
-0.7021051861155081
10
92.678223364292634
20
-175.61736140908124
0
LWPOLYLINE
5
115
100
AcDbEntity
8
0
100
AcDbPolyline
90
6
70
1
43
0.0
10
8.0942750772181391
20
-180.24635641677992
42
-0.66318669006225894
10
4.0280122307058281
20
-184.51546648700173
10
-15.331409169070342
20
-177.19646007914378
42
-0.5657062433502954
10
-16.311879358264914
20
-171.79925618016523
10
-4.6059052307152477
20
-161.5145847806761
42
-0.50845043692280434
10
0.44082780499160923
20
-162.64267860943278
0
LWPOLYLINE
5
116
100
AcDbEntity
8
0
100
AcDbPolyline
90
6
70
1
43
0.0
10
8.154787182985805
20
-160.32092418793906
42
-0.54012116343370598
10
11.089431735985823
20
-155.84504629390293
10
17.966498200339615
20
-155.84504741176039
42
-0.46407726935768445
10
21.121873124585775
20
-159.57759394011919
10
19.198760413039185
20
-170.9721713219898
42
-0.7462091364437119
10
13.108740935793016
20
-171.71550268766723
0
LWPOLYLINE
5
117
100
AcDbEntity
8
0
100
AcDbPolyline
90
8
70
1
43
0.0
10
28.704318423955133
20
-185.51234381587159
42
-0.57648381712033681
10
24.440256001739954
20
-181.97799563096939
10
27.793529198174852
20
-162.10961730352238
42
-0.51762118724878492
10
32.502636968184902
20
-159.84467998735957
10
46.088256642340404
20
-167.39018073886299
42
-0.23664800681221404
10
47.705700094045049
20
-169.75912731618013
10
48.486546048770691
20
-175.53738738114981
42
-0.35129666615412147
10
46.424057249271172
20
-178.96772630489764
0
LWPOLYLINE
5
118
100
AcDbEntity
8
0
100
AcDbPolyline
90
6
70
1
43
0.0
10
-31.927373211879985
20
-159.21931503559753
42
-0.28669726417095442
10
-31.590997389345539
20
-155.84503935625921
10
-17.248974296162231
20
-155.84504168753489
42
-0.69177456101919188
10
-15.136885813907817
20
-161.44901341072526
10
-22.94228947045141
20
-168.30670939080815
42
-0.49314542632617958
10
-27.923085706080162
20
-167.32066531389518
0
LWPOLYLINE
5
119
100
AcDbEntity
8
0
100
AcDbPolyline
90
8
70
1
43
0.0
10
-101.66271646869905
20
-42.47670086196802
10
-91.310882258033232
20
-63.420202220696041
42
0.42884016818655429
10
-86.883540950766829
20
-64.797029754225136
10
-70.439196463770344
20
-55.626024242150656
42
0.58730206138195218
10
-70.439196624411323
20
-50.036512865030893
10
-95.19921752278664
20
-36.227859219090369
42
0.33531543812721898
10
-99.020593365312934
20
-36.759873252647992
10
-101.05675116459992
20
-38.796031051934968
42
0.32155589810992818
0
CIRCLE
5
120
100
AcDbEntity
8
0
100
AcDbCircle
10
-74.591097316010561
20
-133.8450025655894
30
0
40
2.0999999999999996
210
0
220
-0
230
1
0
LWPOLYLINE
5
121
100
AcDbEntity
8
0
100
AcDbPolyline
90
4
70
1
43
0.0
10
-284.10438887357515
20
-204.61964921849949
42
-0.99999999999999989
10
-292.10438887357526
20
-204.61964921849949
10
-292.10438887357532
20
-159.81964921849959
42
-0.99999999999999989
10
-284.10438887357526
20
-159.81964921849968
0
CIRCLE
5
122
100
AcDbEntity
8
0
100
AcDbCircle
10
-87.590999990123052
20
-78.844998503219216
30
0
40
1.6000000000000014
210
-3.1570952150693131e-65
220
-6.1629758220391547e-33
230
1
0
CIRCLE
5
123
100
AcDbEntity
8
0
100
AcDbCircle
10
-29.590999990123073
20
-78.844998503219216
30
0
40
1.599999999999997
210
0
220
-0
230
1
0
CIRCLE
5
124
100
AcDbEntity
8
0
100
AcDbCircle
10
-29.590999990123066
20
-29.844998503219379
30
0
40
1.599999999999997
210
0
220
-0
230
1
0
CIRCLE
5
125
100
AcDbEntity
8
0
100
AcDbCircle
10
-87.590999990123052
20
-29.844998503219379
30
0
40
1.6000000000000014
210
-3.1570952150693131e-65
220
-6.1629758220391547e-33
230
1
0
CIRCLE
5
126
100
AcDbEntity
8
0
100
AcDbCircle
10
13.08712660411517
20
-56.964596170454101
30
0
40
1.6499999999999981
210
4.9303806576313238e-32
220
-5.4738221262688167e-48
230
1
0
CIRCLE
5
127
100
AcDbEntity
8
0
100
AcDbCircle
10
21.086506855448874
20
-56.865019091887575
30
0
40
2.0000000000000062
210
4.9303806576313238e-32
220
-5.4738221262688167e-48
230
1
0
CIRCLE
5
128
100
AcDbEntity
8
0
100
AcDbCircle
10
21.086506855448867
20
-105.34501909188742
30
0
40
2.0000000000000062
210
4.9303806576313238e-32
220
-5.4738221262688167e-48
230
1
0
CIRCLE
5
129
100
AcDbEntity
8
0
100
AcDbCircle
10
13.087166077155779
20
-105.44771822947759
30
0
40
1.6499999999999981
210
4.9303806576313238e-32
220
-5.4738221262688167e-48
230
1
0
CIRCLE
5
130
100
AcDbEntity
8
0
100
AcDbCircle
10
23.258902683988836
20
-114.84500256558945
30
0
40
1.0999999999999943
210
4.9303806576313238e-32
220
-5.4738221262688167e-48
230
1
0
CIRCLE
5
131
100
AcDbEntity
8
0
100
AcDbCircle
10
23.258902683988836
20
-135.8450025655894
30
0
40
1.0999999999999943
210
4.9303806576313238e-32
220
-5.4738221262688167e-48
230
1
0
CIRCLE
5
132
100
AcDbEntity
8
0
100
AcDbCircle
10
23.276045585266218
20
-167.8449979737286
30
0
40
1.0999999999999943
210
4.9303806576313238e-32
220
-5.4738221262688167e-48
230
1
0
CIRCLE
5
133
100
AcDbEntity
8
0
100
AcDbCircle
10
39.959634119131614
20
-158.79389858417593
30
0
40
1.6000000000000014
210
-3.1570952150693131e-65
220
-6.1629758220391547e-33
230
1
0
CIRCLE
5
134
100
AcDbEntity
8
0
100
AcDbCircle
10
39.959634119131636
20
-147.29389858417596
30
0
40
1.6000000000000014
210
-3.1570952150693131e-65
220
-6.1629758220391547e-33
230
1
0
CIRCLE
5
135
100
AcDbEntity
8
0
100
AcDbCircle
10
62.587617849240672
20
-33.346358322389086
30
0
40
2.1000000000000085
210
0
220
-0
230
1
0
ARC
5
136
100
AcDbEntity
8
0
100
AcDbCircle
10
70.283902683976024
20
-13.365613587832204
30
6.9919524816011838e-47
40
2.1000000000000076
210
-3.2670192045492104e-33
220
6.9649531738168369e-32
230
1
100
AcDbArc
50
-133.99533080508832
51
47.685578843878915
0
ARC
5
137
100
AcDbEntity
8
0
100
AcDbCircle
10
70.238960390236286
20
-13.32347652307898
30
2.8566509221465387e-46
40
2.1000000000000068
210
-2.2477257739980355e-33
220
7.0705213136400366e-32
230
1
100
AcDbArc
50
46.004669194912417
51
227.68557884387823
0
CIRCLE
5
138
100
AcDbEntity
8
0
100
AcDbCircle
10
57.587617849240658
20
-70.346358322388994
30
0
40
2.1000000000000085
210
0
220
-0
230
1
0
CIRCLE
5
139
100
AcDbEntity
8
0
100
AcDbCircle
10
97.587617849240587
20
-70.346358322388994
30
0
40
2.1000000000000085
210
0
220
-0
230
1
0
CIRCLE
5
140
100
AcDbEntity
8
0
100
AcDbCircle
10
107.08641265277107
20
-90.84501909188748
30
0
40
2.1000000000000085
210
0
220
-0
230
1
0
CIRCLE
5
141
100
AcDbEntity
8
0
100
AcDbCircle
10
117.08641265277103
20
-90.84501909188748
30
0
40
2.1000000000000085
210
0
220
-0
230
1
0
CIRCLE
5
142
100
AcDbEntity
8
0
100
AcDbCircle
10
136.41207212503073
20
-87.822347220871166
30
0
40
1.6000000000000014
210
-3.1570952150693131e-65
220
-6.1629758220391547e-33
230
1
0
CIRCLE
5
143
100
AcDbEntity
8
0
100
AcDbCircle
10
136.45268983647844
20
-162.64910083675076
30
0
40
1.6000000000000014
210
-3.1570952150693131e-65
220
-6.1629758220391547e-33
230
1
0
CIRCLE
5
144
100
AcDbEntity
8
0
100
AcDbCircle
10
146.87507058353185
20
11.995332339335693
30
0
40
1.6000000000000014
210
-3.1570952150693131e-65
220
-6.1629758220391547e-33
230
1
0
CIRCLE
5
145
100
AcDbEntity
8
0
100
AcDbCircle
10
169.71457445760149
20
-25.286976663659118
30
0
40
1.6000000000000014
210
-3.1570952150693131e-65
220
-6.1629758220391547e-33
230
1
0
CIRCLE
5
146
100
AcDbEntity
8
0
100
AcDbCircle
10
141.4996483538026
20
16.703100468800304
30
0
40
1.6000000000000014
210
-3.1570952150693131e-65
220
-6.1629758220391547e-33
230
1
0
CIRCLE
5
147
100
AcDbEntity
8
0
100
AcDbCircle
10
59.283163494509907
20
-108.32188756159653
30
0
40
1.6000000000000014
210
-3.1570952150693131e-65
220
-6.1629758220391547e-33
230
1
0
CIRCLE
5
148
100
AcDbEntity
8
0
100
AcDbCircle
10
70.283163484110943
20
-108.32140925579327
30
0
40
1.6000000000000014
210
-3.1570952150693131e-65
220
-6.1629758220391547e-33
230
1
0
CIRCLE
5
149
100
AcDbEntity
8
0
100
AcDbCircle
10
77.783163477020793
20
-108.32108313820012
30
0
40
2.5999999999999979
210
4.9303806576313238e-32
220
-5.4738221262688167e-48
230
1
0
CIRCLE
5
150
100
AcDbEntity
8
0
100
AcDbCircle
10
97.086412652771074
20
-125.34501928161312
30
0
40
2.1000000000000085
210
0
220
-0
230
1
0
CIRCLE
5
151
100
AcDbEntity
8
0
100
AcDbCircle
10
107.08641265277107
20
-139.34501928161308
30
0
40
2.1000000000000085
210
0
220
-0
230
1
0
CIRCLE
5
152
100
AcDbEntity
8
0
100
AcDbCircle
10
127.08641265277103
20
-98.345018881153109
30
0
40
2.1000000000000085
210
0
220
-0
230
1
0
CIRCLE
5
153
100
AcDbEntity
8
0
100
AcDbCircle
10
70.283163484110943
20
-142.32140922365102
30
0
40
1.6000000000000014
210
-3.1570952150693131e-65
220
-6.1629758220391547e-33
230
1
0
CIRCLE
5
154
100
AcDbEntity
8
0
100
AcDbCircle
10
117.08641265277103
20
-139.34501928161308
30
0
40
2.1000000000000085
210
0
220
-0
230
1
0
CIRCLE
5
155
100
AcDbEntity
8
0
100
AcDbCircle
10
77.783163477020793
20
-142.32173534124416
30
0
40
2.5999999999999979
210
4.9303806576313238e-32
220
-5.4738221262688167e-48
230
1
0
CIRCLE
5
156
100
AcDbEntity
8
0
100
AcDbCircle
10
59.283163494509893
20
-142.32093091784776
30
0
40
1.6000000000000014
210
-3.1570952150693131e-65
220
-6.1629758220391547e-33
230
1
0
CIRCLE
5
157
100
AcDbEntity
8
0
100
AcDbCircle
10
57.587617849240651
20
-180.34367986138577
30
0
40
2.1000000000000085
210
0
220
-0
230
1
0
CIRCLE
5
158
100
AcDbEntity
8
0
100
AcDbCircle
10
169.78892022755318
20
-225.28696284542431
30
0
40
1.6000000000000014
210
-3.1570952150693131e-65
220
-6.1629758220391547e-33
230
1
0
CIRCLE
5
159
100
AcDbEntity
8
0
100
AcDbCircle
10
97.587617849240559
20
-180.34367986138577
30
0
40
2.1000000000000085
210
0
220
-0
230
1
0
CIRCLE
5
160
100
AcDbEntity
8
0
100
AcDbCircle
10
62.587617849240608
20
-217.34367986138565
30
0
40
2.1000000000000085
210
0
220
-0
230
1
0
CIRCLE
5
161
100
AcDbEntity
8
0
100
AcDbCircle
10
70.283902683975967
20
-237.32442459594253
30
0
40
2.1000000000000085
210
0
220
-0
230
1
0
CIRCLE
5
162
100
AcDbEntity
8
0
100
AcDbCircle
10
147.024048837821
20
-262.45536245590705
30
0
40
1.6000000000000014
210
-3.1570952150693131e-65
220
-6.1629758220391547e-33
230
1
0
CIRCLE
5
163
100
AcDbEntity
8
0
100
AcDbCircle
10
174.25174703166707
20
-125.2852969747176
30
0
40
1.6000000000000014
210
-3.1570952150693131e-65
220
-6.1629758220391547e-33
230
1
0
CIRCLE
5
164
100
AcDbEntity
8
0
100
AcDbCircle
10
-266.23905841413267
20
-87.822347220871166
30
0
40
1.6000000000000014
210
-3.1570952150693131e-65
220
-6.1629758220391547e-33
230
1
0
CIRCLE
5
165
100
AcDbEntity
8
0
100
AcDbCircle
10
-266.27967612558041
20
-162.64910083675076
30
0
40
1.6000000000000014
210
-3.1570952150693131e-65
220
-6.1629758220391547e-33
230
1
0
LWPOLYLINE
5
166
100
AcDbEntity
8
0
100
AcDbPolyline
90
4
70
1
43
0.0
10
162.27973244915034
20
-261.41964917071527
42
-0.99999999999999989
10
154.27973244915037
20
-261.41964917071527
10
154.27973244915046
20
-216.61964917071541
42
-0.99999999999999989
10
162.27973244915046
20
-216.61964917071541
0
LWPOLYLINE
5
167
100
AcDbEntity
8
0
100
AcDbPolyline
90
4
70
1
43
0.0
10
162.27740258447326
20
-204.61964921849949
42
-0.99999999999999989
10
154.27740258447326
20
-204.61964921849949
10
154.27740258447332
20
-159.81964921849962
42
-0.99999999999999989
10
162.27740258447335
20
-159.81964921849962
0
LWPOLYLINE
5
168
100
AcDbEntity
8
0
100
AcDbPolyline
90
4
70
1
43
0.0
10
162.27507271979613
20
-147.81964926628379
42
-0.99999999999999989
10
154.27507271979616
20
-147.81964926628373
10
154.27507271979621
20
-103.01964926628393
42
-0.99999999999999989
10
162.27507271979621
20
-103.01964926628389
0
LWPOLYLINE
5
169
100
AcDbEntity
8
0
100
AcDbPolyline
90
8
70
1
43
0.0
10
107.25962721532451
20
-70.673658430126054
10
113.88064372453691
20
-82.888091741288179
42
0.27530755862508055
10
116.69564564054939
20
-84.563118907195587
10
135.05461165824829
20
-84.553153231175344
42
0.41421356237301049
10
138.25287415223096
20
-81.351416668061844
10
138.23890314420609
20
-55.613748578611862
42
0.56824915407569532
10
133.51393125301638
20
-52.802220731730245
10
108.54791973412999
20
-66.335421186038346
42
0.41421356237309137
0
CIRCLE
5
170
100
AcDbEntity
8
0
100
AcDbCircle
10
141.60521976535381
20
-267.29800497591361
30
0
40
1.6000000000000014
210
-3.1570952150693131e-65
220
-6.1629758220391547e-33
230
1
0
LWPOLYLINE
5
171
100
AcDbEntity
8
0
100
AcDbPolyline
90
4
70
1
43
0.0
10
162.27274285511902
20
-91.019649314068033
42
-0.99999999999999989
10
154.27274285511908
20
-91.019649314067991
10
154.27274285511913
20
-46.21964931406815
42
-0.99999999999999989
10
162.27274285511919
20
-46.21964931406815
0
LWPOLYLINE
5
172
100
AcDbEntity
8
0
100
AcDbPolyline
90
4
70
1
43
0.0
10
162.270412990442
20
-34.21964936185222
42
-0.99999999999999989
10
154.27041299044203
20
-34.21964936185222
10
154.27041299044205
20
10.580350638147637
42
-0.99999999999999989
10
162.27041299044208
20
10.580350638147626
0
CIRCLE
5
173
100
AcDbEntity
8
0
100
AcDbCircle
10
-49.913493144550991
20
-157.34501928161311
30
0
40
1.6000000000000014
210
-3.1570952150693131e-65
220
-6.1629758220391547e-33
230
1
0
LWPOLYLINE
5
174
100
AcDbEntity
8
0
100
AcDbPolyline
90
8
70
1
43
0.0
10
116.88641558071565
20
-100.09501941537823
42
-0.41421355079225192
10
120.08641545418938
20
-103.29501941537828
10
120.08641545418936
20
-126.89501875749214
42
-0.41421355890000527
10
116.88641549213449
20
-130.09501875749211
10
107.28640980992512
20
-130.0950188713276
42
-0.41421356237308693
10
104.08640977198003
20
-126.89501890927274
10
104.08640949213456
20
-103.29501907374424
42
-0.41421357742702641
10
107.2864096186609
20
-100.09501903579914
0
CIRCLE
5
175
100
AcDbEntity
8
0
100
AcDbCircle
10
-49.866287058967828
20
-220.84500173503969
30
0
40
1.6000000000000014
210
-3.1570952150693131e-65
220
-6.1629758220391547e-33
230
1
0
LWPOLYLINE
5
176
100
AcDbEntity
8
0
100
AcDbPolyline
90
6
70
1
43
0.0
10
-260.83716217399467
20
-123.74501909188734
42
-0.26794919243113463
10
-260.83716217399461
20
-126.94501909188739
10
-266.44212045118093
20
-136.65309160227784
42
-0.76732698797895715
10
-272.41340174329116
20
-135.05309160227782
10
-272.41340174329116
20
-115.63694658149689
42
-0.76732698797895671
10
-266.44212045118104
20
-114.03694658149689
0
CIRCLE
5
177
100
AcDbEntity
8
0
100
AcDbCircle
10
-124.913493144551
20
-157.34501928161311
30
0
40
1.5999999999999837
210
-4.9303806576313238e-32
220
5.4738221262688167e-48
230
1
0
LWPOLYLINE
5
178
100
AcDbEntity
8
0
100
AcDbPolyline
90
6
70
1
43
0.0
10
142.58641545418928
20
-135.05309160227779
42
-0.76732698797895915
10
136.61513416207902
20
-136.65309160227781
10
131.01017588489276
20
-126.94501909188737
42
-0.26794919243112181
10
131.01017588489273
20
-123.74501909188739
10
136.61513416207913
20
-114.03694658149692
42
-0.76732698797896104
10
142.58641545418922
20
-115.63694658149689
0
CIRCLE
5
179
100
AcDbEntity
8
0
100
AcDbCircle
10
-124.90446705986102
20
-202.34501837638859
30
0
40
1.6000000000000014
210
-3.1570952150693131e-65
220
-6.1629758220391547e-33
230
1
0
LWPOLYLINE
5
180
100
AcDbEntity
8
0
100
AcDbPolyline
90
2
70
1
43
0.0
10
79.181262471683141
20
-218.63234971962189
42
-1.0009859273843129
10
75.918604081099119
20
-215.98753534122184
42
-1.0009859271702966
0
LWPOLYLINE
5
181
100
AcDbEntity
8
0
100
AcDbPolyline
90
2
70
1
43
0.0
10
-205.745590370196
20
-215.98753534121715
42
-1.0009859273845103
10
-209.00824876079085
20
-218.63234971962601
42
-1.0009859271701838
0
CIRCLE
5
182
100
AcDbEntity
8
0
100
AcDbCircle
10
127.08641265277103
20
-152.34501930262164
30
0
40
2.1000000000000085
210
0
220
-0
230
1
0
LWPOLYLINE
5
183
100
AcDbEntity
8
0
100
AcDbPolyline
90
2
70
1
43
0.0
10
75.918604081093676
20
-34.70250284255701
42
-1.0009859273843411
10
79.181262471688697
20
-32.057688464148754
42
-1.0009859271702684
0
LWPOLYLINE
5
184
100
AcDbEntity
8
0
100
AcDbPolyline
90
2
70
1
43
0.0
10
-209.00824876078528
20
-32.057688464153109
42
-1.0009859273844255
10
-205.74559037020123
20
-34.702502842553166
42
-1.0009859271701838
0
CIRCLE
5
185
100
AcDbEntity
8
0
100
AcDbCircle
10
-256.91339894187297
20
-98.345018881153109
30
0
40
2.1000000000000085
210
0
220
-0
230
1
0
LWPOLYLINE
5
186
100
AcDbEntity
8
0
100
AcDbPolyline
90
8
70
1
43
0.0
10
-237.11339609902717
20
-120.59501931244718
42
-0.41421356237310153
10
-233.91339606108201
20
-123.79501927450204
10
-233.91339578123646
20
-147.39501911003049
42
-0.41421357742701664
10
-237.11339590776277
20
-150.59501914797562
10
-246.71340186981769
20
-150.5950187683965
42
-0.41421355079224542
10
-249.91340174329136
20
-147.39501876839648
10
-249.91340174329122
20
-123.79501942628266
42
-0.41421355890001338
10
-246.7134017812364
20
-120.5950194262827
0
CIRCLE
5
187
100
AcDbEntity
8
0
100
AcDbCircle
10
-227.4146041383425
20
-70.346358322388994
30
0
40
2.1000000000000085
210
0
220
-0
230
1
0
ARC
5
188
100
AcDbEntity
8
0
100
AcDbCircle
10
-200.11088897307789
20
-13.365613587832213
30
-5.8159360091606177e-47
40
2.0999999999999766
210
1.8998219392455645e-35
220
-6.1629465396593463e-33
230
1
100
AcDbArc
50
-0.15363127684354236
51
180.17662238906121
0
ARC
5
189
100
AcDbEntity
8
0
100
AcDbCircle
10
-200.11088654450546
20
-13.377717999889541
30
-1.3684555315672042e-47
40
2.0999999999999766
210
-7.6200803010041234e-37
220
-2.8418522806978061e-34
230
1
100
AcDbArc
50
-180.15363127684589
51
0.1766223890612206
0
CIRCLE
5
190
100
AcDbEntity
8
0
100
AcDbCircle
10
-236.91339894187297
20
-111.34501890216166
30
0
40
2.1000000000000085
210
0
220
-0
230
1
0
CIRCLE
5
191
100
AcDbEntity
8
0
100
AcDbCircle
10
-207.6101497661227
20
-108.32108313820012
30
0
40
2.5999999999999801
210
0
220
-0
230
1
0
CIRCLE
5
192
100
AcDbEntity
8
0
100
AcDbCircle
10
-249.18849314455048
20
-65.345019091887707
30
0
40
1.2000000000000099
210
0
220
-0
230
1
0
LWPOLYLINE
5
193
100
AcDbEntity
8
0
100
AcDbPolyline
90
4
70
1
43
0.0
10
-284.09739927954377
20
-34.219649361852191
42
-0.99999999999999989
10
-292.09739927954394
20
-34.219649361852227
10
-292.09739927954399
20
10.580350638147682
42
-0.99999999999999989
10
-284.09739927954399
20
10.580350638147618
0
CIRCLE
5
194
100
AcDbEntity
8
0
100
AcDbCircle
10
-192.41460413834258
20
-33.346358322389086
30
0
40
2.1000000000000085
210
0
220
-0
230
1
0
LWPOLYLINE
5
195
100
AcDbEntity
8
0
100
AcDbPolyline
90
4
70
1
43
0.0
10
-284.10205900889792
20
-147.81964926628373
42
-0.99999999999999989
10
-292.1020590088981
20
-147.81964926628376
10
-292.10205900889815
20
-103.01964926628385
42
-0.99999999999999989
10
-284.10205900889815
20
-103.01964926628395
0
CIRCLE
5
196
100
AcDbEntity
8
0
100
AcDbCircle
10
-299.5415607467034
20
-25.286976663659118
30
0
40
1.6000000000000014
210
-3.1570952150693131e-65
220
-6.1629758220391547e-33
230
1
0
LWPOLYLINE
5
197
100
AcDbEntity
8
0
100
AcDbPolyline
90
4
70
1
43
0.0
10
-251.6884931445507
20
-72.345019091887593
10
-251.6884931445507
20
-80.345019091887565
10
-246.68849314455056
20
-80.345019091887551
10
-246.6884931445507
20
-72.345019091887593
0
LWPOLYLINE
5
198
100
AcDbEntity
8
0
100
AcDbPolyline
90
4
70
1
43
0.0
10
-155.68849314455704
20
-45.345019091887607
10
-167.68849314455704
20
-45.345019091887622
10
-167.68849314455704
20
-50.345019091887607
10
-155.68849314455707
20
-50.345019091887586
0
CIRCLE
5
199
100
AcDbEntity
8
0
100
AcDbCircle
10
-187.41460413834258
20
-70.346358322388994
30
0
40
2.1000000000000085
210
0
220
-0
230
1
0
CIRCLE
5
200
100
AcDbEntity
8
0
100
AcDbCircle
10
-200.11014977321284
20
-108.32140925579327
30
0
40
1.6000000000000014
210
-3.1570952150693131e-65
220
-6.1629758220391547e-33
230
1
0
CIRCLE
5
201
100
AcDbEntity
8
0
100
AcDbCircle
10
-189.11014978361183
20
-108.32188756159653
30
0
40
1.6000000000000014
210
-3.1570952150693131e-65
220
-6.1629758220391547e-33
230
1
0
CIRCLE
5
202
100
AcDbEntity
8
0
100
AcDbCircle
10
-299.61590651665517
20
-225.28696284542431
30
0
40
1.6000000000000014
210
-3.1570952150693131e-65
220
-6.1629758220391547e-33
230
1
0
LWPOLYLINE
5
203
100
AcDbEntity
8
0
100
AcDbPolyline
90
4
70
1
43
0.0
10
-251.68849314455073
20
-170.3450190918872
10
-251.68849314455073
20
-178.34501909188717
10
-246.68849314455073
20
-178.34501909188717
10
-246.68849314455059
20
-170.3450190918872
0
CIRCLE
5
204
100
AcDbEntity
8
0
100
AcDbCircle
10
-276.7020568726337
20
11.995332339335693
30
0
40
1.6000000000000014
210
-3.1570952150693131e-65
220
-6.1629758220391547e-33
230
1
0
CIRCLE
5
205
100
AcDbEntity
8
0
100
AcDbCircle
10
-276.85103512692302
20
-262.45536245590705
30
0
40
1.6000000000000014
210
-3.1570952150693131e-65
220
-6.1629758220391547e-33
230
1
0
CIRCLE
5
206
100
AcDbEntity
8
0
100
AcDbCircle
10
-249.18849314455053
20
-185.34501909188705
30
0
40
1.2000000000000099
210
0
220
-0
230
1
0
CIRCLE
5
207
100
AcDbEntity
8
0
100
AcDbCircle
10
-142.91411289321712
20
-193.72544201332062
30
0
40
1.6499999999999915
210
-4.9303806576313238e-32
220
5.4738221262688167e-48
230
1
0
CIRCLE
5
208
100
AcDbEntity
8
0
100
AcDbCircle
10
-192.41460413834261
20
-217.34367986138565
30
0
40
2.1000000000000085
210
0
220
-0
230
1
0
CIRCLE
5
209
100
AcDbEntity
8
0
100
AcDbCircle
10
-304.07873332076895
20
-125.2852969747176
30
0
40
1.6000000000000014
210
-3.1570952150693131e-65
220
-6.1629758220391547e-33
230
1
0
CIRCLE
5
210
100
AcDbEntity
8
0
100
AcDbCircle
10
-271.32663464290448
20
16.703100468800304
30
0
40
1.6000000000000014
210
-3.1570952150693131e-65
220
-6.1629758220391547e-33
230
1
0
LWPOLYLINE
5
211
100
AcDbEntity
8
0
100
AcDbPolyline
90
4
70
1
43
0.0
10
-159.28849314455701
20
-55.345019091887579
10
-164.08849314455705
20
-55.345019091887586
10
-164.08849314455705
20
-57.345019091887579
10
-159.28849314455707
20
-57.345019091887572
0
CIRCLE
5
212
100
AcDbEntity
8
0
100
AcDbCircle
10
-150.91349314455081
20
-193.82501909188716
30
0
40
2.0000000000000107
210
0
220
-0
230
1
0
LWPOLYLINE
5
213
100
AcDbEntity
8
0
100
AcDbPolyline
90
4
70
1
43
0.0
10
-292.10671873825248
20
-216.61964917071538
42
-0.99999999999999989
10
-284.10671873825237
20
-216.61964917071543
10
-284.10671873825225
20
-261.41964917071533
42
-0.99999999999999989
10
-292.10671873825231
20
-261.41964917071516
0
LWPOLYLINE
5
214
100
AcDbEntity
8
0
100
AcDbPolyline
90
4
70
1
43
0.0
10
-242.68849314455065
20
-45.345019091887679
10
-257.68849314455059
20
-45.345019091887679
10
-257.68849314455059
20
-50.345019091887679
10
-242.68849314455065
20
-50.345019091887657
0
LWPOLYLINE
5
215
100
AcDbEntity
8
0
100
AcDbPolyline
90
4
70
1
43
0.0
10
-284.09972914422087
20
-91.019649314067962
42
-0.99999999999999989
10
-292.09972914422104
20
-91.019649314067991
10
-292.09972914422104
20
-46.219649314068079
42
-0.99999999999999989
10
-284.0997291442211
20
-46.219649314068207
0
LWPOLYLINE
5
216
100
AcDbEntity
8
0
100
AcDbPolyline
90
4
70
1
43
0.0
10
-155.68849314455713
20
-200.34501909188717
10
-167.68849314455707
20
-200.34501909188714
10
-167.68849314455707
20
-205.34501909188717
10
-155.68849314455713
20
-205.34501909188717
0
CIRCLE
5
217
100
AcDbEntity
8
0
100
AcDbCircle
10
-271.43220605445578
20
-267.29800497591361
30
0
40
1.6000000000000014
210
-3.1570952150693131e-65
220
-6.1629758220391547e-33
230
1
0
LWPOLYLINE
5
218
100
AcDbEntity
8
0
100
AcDbPolyline
90
4
70
1
43
0.0
10
-242.68849314455068
20
-200.34501909188708
10
-257.68849314455059
20
-200.34501909188708
10
-257.68849314455059
20
-205.34501909188708
10
-242.68849314455068
20
-205.34501909188708
0
ARC
5
219
100
AcDbEntity
8
0
100
AcDbCircle
10
-200.110888973078
20
-237.32442459594253
30
9.4423431678137088e-46
40
2.0999999999999992
210
3.2089765853858428e-32
220
-3.7431434254635026e-32
230
1
100
AcDbArc
50
38.684279341168171
51
220.60630570248046
0
ARC
5
220
100
AcDbEntity
8
0
100
AcDbCircle
10
-200.06594425076571
20
-237.37866607277991
30
-8.210733189403225e-46
40
2.1000000000000267
210
3.0798946930917236e-32
220
-3.8464993850652305e-32
230
1
100
AcDbArc
50
-141.31572065883282
51
40.606305702481464
0
LWPOLYLINE
5
221
100
AcDbEntity
8
0
100
AcDbPolyline
90
4
70
1
43
0.0
10
-159.28849314455707
20
-193.34501909188717
10
-164.08849314455708
20
-193.34501909188717
10
-164.08849314455708
20
-195.3450190918872
10
-159.28849314455709
20
-195.3450190918872
0
CIRCLE
5
222
100
AcDbEntity
8
0
100
AcDbCircle
10
-207.6101497661227
20
-142.32173534124416
30
0
40
2.5999999999999801
210
0
220
-0
230
1
0
CIRCLE
5
223
100
AcDbEntity
8
0
100
AcDbCircle
10
-246.91339894187297
20
-111.34501890216166
30
0
40
2.1000000000000085
210
0
220
-0
230
1
0
CIRCLE
5
224
100
AcDbEntity
8
0
100
AcDbCircle
10
-226.91339894187297
20
-125.34501928161312
30
0
40
2.1000000000000085
210
0
220
-0
230
1
0
CIRCLE
5
225
100
AcDbEntity
8
0
100
AcDbCircle
10
-246.91339894187297
20
-159.84501909188725
30
0
40
2.1000000000000085
210
0
220
-0
230
1
0
CIRCLE
5
226
100
AcDbEntity
8
0
100
AcDbCircle
10
-227.41460413834255
20
-180.34367986138577
30
0
40
2.1000000000000085
210
0
220
-0
230
1
0
CIRCLE
5
227
100
AcDbEntity
8
0
100
AcDbCircle
10
-189.11014978361183
20
-142.32093091784776
30
0
40
1.6000000000000014
210
-3.1570952150693131e-65
220
-6.1629758220391547e-33
230
1
0
CIRCLE
5
228
100
AcDbEntity
8
0
100
AcDbCircle
10
-236.91339894187297
20
-159.84501909188725
30
0
40
2.1000000000000085
210
0
220
-0
230
1
0
CIRCLE
5
229
100
AcDbEntity
8
0
100
AcDbCircle
10
-200.11014977321284
20
-142.32140922365102
30
0
40
1.6000000000000014
210
-3.1570952150693131e-65
220
-6.1629758220391547e-33
230
1
0
CIRCLE
5
230
100
AcDbEntity
8
0
100
AcDbCircle
10
-150.91349314455081
20
-145.34501909188731
30
0
40
2.0000000000000107
210
0
220
-0
230
1
0
CIRCLE
5
231
100
AcDbEntity
8
0
100
AcDbCircle
10
-256.91339894187297
20
-152.34501930262164
30
0
40
2.1000000000000085
210
0
220
-0
230
1
0
CIRCLE
5
232
100
AcDbEntity
8
0
100
AcDbCircle
10
-142.91415236625772
20
-145.24231995429716
30
0
40
1.6499999999999915
210
-4.9303806576313238e-32
220
5.4738221262688167e-48
230
1
0
CIRCLE
5
233
100
AcDbEntity
8
0
100
AcDbCircle
10
-187.41460413834261
20
-180.34367986138577
30
0
40
2.1000000000000085
210
0
220
-0
230
1
0
LWPOLYLINE
5
234
100
AcDbEntity
8
0
100
AcDbPolyline
90
8
70
1
43
0.0
10
-268.03905841413263
20
-62.822347220871166
10
-268.03905841413263
20
-81.42234722087116
42
0.41421356237309503
10
-264.83905841413264
20
-84.622347220871163
10
-263.23905841413267
20
-84.622347220871163
42
0.41421356237309342
10
-260.03905841413268
20
-81.422347220871174
10
-260.03905841413268
20
-62.822347220871173
42
0.41421356237309503
10
-263.23905841413267
20
-59.62234722087117
10
-264.83905841413264
20
-59.62234722087117
42
0.41421356237309426
0
LWPOLYLINE
5
235
100
AcDbEntity
8
0
100
AcDbPolyline
90
9
70
1
43
0.0
10
-218.91340029102577
20
-117.04502277344471
10
-218.91339894187294
20
-125.34501928161312
10
-218.91340029102577
20
-133.64501578978152
42
0.41421356237309664
10
-215.71340081118132
20
-136.84501630993699
10
-158.79110268011692
20
-136.84502556257652
42
0.41421356237309503
10
-155.59110215996145
20
-133.64502608273207
10
-155.59109946165273
20
-117.04501352080476
42
0.41421365759186007
10
-158.79109998180817
20
-113.84501300064929
10
-215.71340081118126
20
-113.84502225328923
42
0.41421356237309503
0
LWPOLYLINE
5
236
100
AcDbEntity
8
0
100
AcDbPolyline
90
12
70
1
43
0.0
10
-31.590995845133897
20
-136.84503924916891
10
-3.532568150839936
20
-136.84503924916885
42
0.14406713334268859
10
-1.7994715260158212
20
-136.33509056634171
10
11.083526067121849
20
-128.03507059878595
42
0.54530683701512483
10
11.083526067121849
20
-122.65496796444029
10
-1.7994715260158025
20
-114.35494799688456
42
0.14406713334268917
10
-3.5325681508399143
20
-113.84499931405739
10
-31.590995845133882
20
-113.84499931405735
10
-65.391098941496494
20
-113.84500206113698
42
0.41421356237309587
10
-68.591098681418757
20
-117.04500232121472
10
-68.591097332262606
20
-133.64503676216714
42
0.41421351476371571
10
-65.391097592340358
20
-136.84503650208936
0
LWPOLYLINE
5
237
100
AcDbEntity
8
0
100
AcDbPolyline
90
10
70
1
43
0.0
10
-117.59120065619605
20
-113.84500630366358
10
-140.39109998180751
20
-113.84501000975516
42
0.41421346715433477
10
-143.59109946165194
20
-117.04500948959961
10
-143.59110215996165
20
-133.64502803331519
42
0.41421356237309503
10
-140.39110268011717
20
-136.84502855347066
10
-117.59120065619607
20
-136.84503225956266
10
-83.791097592340563
20
-136.84503500664229
42
0.41421360998247758
10
-80.591097332262819
20
-133.64503474656456
10
-80.591098681418742
20
-117.04500329650629
42
0.41421356237309503
10
-83.791098941496486
20
-113.84500355658405
0
LWPOLYLINE
5
238
100
AcDbEntity
8
0
100
AcDbPolyline
90
6
70
1
43
0.0
10
-191.26386464004139
20
-97.24489181942144
10
-193.55031784311333
20
-80.325138116689175
42
0.48846168061055834
10
-197.91147796030498
20
-77.783164102843912
10
-217.64258447465238
20
-85.687428904104976
42
0.6738831612723073
10
-217.66518210367732
20
-91.61929882076268
10
-195.64762238625798
20
-100.63478772223388
42
0.57713844836537442
0
LWPOLYLINE
5
239
100
AcDbEntity
8
0
100
AcDbPolyline
90
6
70
1
43
0.0
10
-195.262746532579
20
-67.653165814643302
10
-198.58361936565359
20
-43.078706849891397
42
0.72549891576475523
10
-204.56806002441323
20
-41.982271754454715
10
-222.50520965339456
20
-75.072676774693491
42
0.70210518611550377
10
-218.50196043206932
20
-79.56816041838438
10
-197.24393797001341
20
-71.052214362897473
42
0.34366912232474234
0
LWPOLYLINE
5
240
100
AcDbEntity
8
0
100
AcDbPolyline
90
10
70
1
43
0.0
10
89.08641265277106
20
-132.14501928161312
10
89.08641265277106
20
-118.54501928161312
42
0.41421356237309342
10
85.886412652771071
20
-115.34501928161312
10
39.722147441985108
20
-115.34501928161312
42
0.14406713334269022
10
37.989050817160987
20
-115.85496796444031
10
27.43433119289795
20
-122.65496796444029
42
0.54530683701512339
10
27.43433119289795
20
-128.03507059878595
10
37.989050817160994
20
-134.83507059878593
42
0.14406713334268886
10
39.722147441985101
20
-135.34501928161313
10
85.886412652771057
20
-135.34501928161313
42
0.41421356237309503
0
LWPOLYLINE
5
241
100
AcDbEntity
8
0
100
AcDbPolyline
90
6
70
1
43
0.0
10
65.820636097156068
20
-100.63478772223388
10
87.838195814575371
20
-91.61929882076268
42
0.67388316127230918
10
87.815598185550414
20
-85.687428904104976
10
68.084491671203082
20
-77.783164102843926
42
0.48846168061055739
10
63.723331554011438
20
-80.325138116689189
10
61.436878350939502
20
-97.24489181942144
42
0.57713844836537176
0
LWPOLYLINE
5
242
100
AcDbEntity
8
0
100
AcDbPolyline
90
8
70
1
43
0.0
10
46.424057249271172
20
-71.722311878877079
10
28.704318423955147
20
-65.177694367903172
42
0.57648381712033525
10
24.440256001739968
20
-68.712042552805372
10
27.793529198174859
20
-88.580420880252348
42
0.51762118724878814
10
32.502636968184916
20
-90.845358196415191
10
46.088256642340426
20
-83.299857444911751
42
0.23664800681221393
10
47.705700094045049
20
-80.930910867594577
10
48.486546048770684
20
-75.152650802624962
42
0.35129666615412175
0
LWPOLYLINE
5
243
100
AcDbEntity
8
0
100
AcDbPolyline
90
10
70
1
43
0.0
10
-85.516717970585304
20
-75.142770913095362
10
-80.11916543709151
20
-86.062927333545019
42
0.28531983764764113
10
-77.250458433195433
20
-87.844999223308946
10
-39.931542117319452
20
-87.844999223308946
42
0.28531988178664791
10
-37.062834881925333
20
-86.062926865185432
10
-31.665282103256914
20
-75.142765460407375
42
0.39973665403919656
10
-32.975355195921672
20
-70.930082085176281
10
-57.032363166600732
20
-57.513498464823385
42
0.25999962367511786
10
-60.149631612700404
20
-57.513498554412806
10
-84.206645270059539
20
-70.930087159094114
42
0.39973668471144913
0
LWPOLYLINE
5
244
100
AcDbEntity
8
0
100
AcDbPolyline
90
6
70
1
43
0.0
10
-27.923085706080148
20
-83.369372869879584
10
-31.927373211879978
20
-91.470723148177214
42
0.28669726417095559
10
-31.590997389345532
20
-94.844998827515553
10
-17.248974296162228
20
-94.844996496239844
42
0.69177456101919121
10
-15.136885813907814
20
-89.241024773049489
10
-22.942289470451399
20
-82.383328792966608
42
0.49314542632618502
0
LWPOLYLINE
5
245
100
AcDbEntity
8
0
100
AcDbPolyline
90
8
70
1
43
0.0
10
-139.50457516174009
20
-64.006879258942831
10
-119.88473961900083
20
-90.948205358015244
42
0.44125209387365238
10
-115.18588931273396
20
-91.468385883700236
10
-96.162560072107382
20
-74.754804239763729
42
0.33945425881090502
10
-95.405942464340612
20
-70.93290474498437
10
-105.33830099302206
20
-50.83807331874047
42
0.3771924353770108
10
-109.24705089922819
20
-49.22973132776729
10
-137.95785715391258
20
-59.096818298875256
42
0.50457420941961595
0
LWPOLYLINE
5
246
100
AcDbEntity
8
0
100
AcDbPolyline
90
6
70
1
43
0.0
10
-94.239709944089682
20
-82.383334595913468
10
-102.04511380320255
20
-89.241033002092465
42
0.6917745910612626
10
-99.933024149952686
20
-94.845004381965751
10
-88.73803673226972
20
-94.845003472101013
42
0.55603290945332606
10
-85.869329990956146
20
-90.227075356797457
10
-89.258913549526255
20
-83.369377860483169
42
0.49314542603130063
0
LWPOLYLINE
5
247
100
AcDbEntity
8
0
100
AcDbPolyline
90
8
70
1
43
0.0
10
-158.53130471305707
20
-65.177694367903186
10
-176.2510435383731
20
-71.722311878877065
42
0.35129666615411981
10
-178.31353233787257
20
-75.152650802624933
10
-177.53268638314697
20
-80.930910867594548
42
0.23664800681221482
10
-175.91524293144235
20
-83.299857444911737
10
-162.32962325728687
20
-90.845358196415162
42
0.5176211872487908
10
-157.62051548727678
20
-88.580420880252319
10
-154.26724229084189
20
-68.712042552805386
42
0.57648381712033736
0
LWPOLYLINE
5
248
100
AcDbEntity
8
0
100
AcDbPolyline
90
6
70
1
43
0.0
10
-11.253519427969536
20
-49.644023426146767
10
-17.313832602915127
20
-61.90506106525347
42
0.68094953620370846
10
-13.313506556028507
20
-66.316220887716582
10
-0.018467073946499268
20
-61.289909555746299
42
0.54459772468878953
10
1.1126558121826713
20
-56.033935679763694
10
-6.1220704949537446
20
-48.799209372627274
42
0.51336774356412351
0
LWPOLYLINE
5
249
100
AcDbEntity
8
0
100
AcDbPolyline
90
6
70
1
43
0.0
10
-148.2091970317162
20
-74.879752928090838
10
-150.94885941368773
20
-91.112444243655574
42
0.46407726935768667
10
-147.79348448944154
20
-94.844990772014327
10
-133.2324745132982
20
-94.844993138886025
42
0.61318335882897368
10
-130.64571308050037
20
-89.761202285095266
10
-142.46706067467218
20
-73.528508602658817
42
0.66412483896618191
0
LWPOLYLINE
5
250
100
AcDbEntity
8
0
100
AcDbPolyline
90
6
70
1
43
0.0
10
67.416951680911509
20
-71.052214362897487
10
88.674974142967415
20
-79.568160418384394
42
0.70210518611550676
10
92.67822336429262
20
-75.07267677469352
10
74.741073735311318
20
-41.982271754454736
42
0.72549891576475456
10
68.756633076551694
20
-43.078706849891411
10
65.435760243477091
20
-67.653165814643302
42
0.34366912232474262
0
LWPOLYLINE
5
251
100
AcDbEntity
8
0
100
AcDbPolyline
90
6
70
1
43
0.0
10
11.089431735985812
20
-94.844991889871807
10
17.966498200339622
20
-94.844990772014327
42
0.46407726935768401
10
21.121873124585782
20
-91.112444243655588
10
19.198760413039178
20
-79.717866861784927
42
0.74620913644371145
10
13.108740935793028
20
-78.974535496107535
10
8.1547871829858174
20
-90.369113995835676
42
0.54012116343370531
0
LWPOLYLINE
5
252
100
AcDbEntity
8
0
100
AcDbPolyline
90
6
70
1
43
0.0
10
-16.311879358264903
20
-78.89078200360953
10
-4.6059052307152291
20
-89.175453403098658
42
0.50845043692281477
10
0.44082780499161589
20
-88.047359574341925
10
8.0942750772181356
20
-70.443681766994871
42
0.66318669006225783
10
4.028012230705853
20
-66.174571696773029
10
-15.33140916907033
20
-73.49357810463097
42
0.56570624335028896
0
LWPOLYLINE
5
253
100
AcDbEntity
8
0
100
AcDbPolyline
90
6
70
1
43
0.0
10
-57.032366647880792
20
-48.149039663154866
10
-40.340075082450909
20
-38.839754146984554
42
0.77324757839514191
10
-41.898709385821249
20
-32.844998503219372
10
-75.28329476383125
20
-32.844998503219372
42
0.77324760127203385
10
-76.841928907154397
20
-38.839754236242797
10
-60.149635094574279
20
-48.149039752413117
42
0.25999962373182606
0
LWPOLYLINE
5
254
100
AcDbEntity
8
0
100
AcDbPolyline
90
8
70
1
43
0.0
10
-25.871121090666733
20
-63.420198575500194
10
-15.519289587386005
20
-42.476694086271294
42
0.32155585307334017
10
-16.12525512298317
20
-38.796024744597844
10
-18.161406541743499
20
-36.759873325837511
42
0.33531545411277863
10
-21.982782544910808
20
-36.227859381869294
10
-46.742801800158958
20
-50.036513977284244
42
0.58730206131051543
10
-46.742801640111757
20
-55.626025354072837
10
-30.298462469383995
20
-64.797026666647128
42
0.42884019955943625
0
LWPOLYLINE
5
255
100
AcDbEntity
8
0
100
AcDbPolyline
90
81
70
1
43
0.0
10
9.2499834285976963
20
-51.85986016299023
42
-0.021773315392000704
10
26.610569920955768
20
-53.175918849234236
42
0.36965772477001818
10
53.653122735607482
20
-35.110311167072695
42
-0.027768439279823573
10
57.241278482400581
20
-24.60750726933216
10
62.209073464114148
20
-12.33850034223217
42
-0.30594803261901415
10
69.63668544666865
20
-7.3409703295193554
10
70.212691013386475
20
-7.3418638042388276
10
70.788695270662316
20
-7.3403449916508121
42
-0.30594803261901427
10
78.221728426704772
20
-12.329808298713569
10
83.868558670864388
20
-26.232427965836873
42
0.027736223828756772
10
88.6032657007555
20
-36.256453272644926
10
89.055269636295762
20
-37.090308907857057
42
0.41421356237309936
10
122.94774810573148
20
-47.155094211024455
10
130.37327409165712
20
-43.129976639874187
42
0.27530755862507478
10
138.22496393184787
20
-29.934655158565874
10
138.20073448659059
20
14.701309446561314
42
-0.41421356237309875
10
144.19747666280816
20
20.704565502400847
10
162.95281215914906
20
20.714746337041916
42
-0.37614909384537826
10
168.9036925152237
20
15.505807078618474
42
-0.066023968482552556
10
169.00836621633715
20
-266.08033817040098
42
-0.37614909384539663
10
163.06136013060632
20
-271.2937002167713
10
144.30602224855815
20
-271.2974631825623
42
-0.41421356237309159
10
138.30481856299983
20
-265.29866710964563
10
138.29601756301329
20
-221.43280767347227
10
138.29586926109465
20
-220.69344099423643
42
0.27530755862593409
10
130.43437214996067
20
-207.50396012823839
10
123.00585593171762
20
-203.48436382704296
42
0.41421356237309975
10
89.120869018396178
20
-213.57434211661601
10
88.669485098471625
20
-214.40853354246048
42
0.027736223828756772
10
83.942231266602704
20
-224.4360758744335
10
78.305737830889655
20
-238.34288957003616
42
-0.30594803261901476
10
70.876415910377119
20
-243.33787723696224
10
69.724405939833403
20
-243.3381083067365
42
-0.3059480326190141
10
62.29308083128921
20
-238.34610138341668
10
57.316166406689774
20
-226.08079091984513
42
-0.027768439279821241
10
53.720203836277598
20
-215.58065736975055
42
0.36965772477001613
10
26.664228468583065
20
-197.53515819234599
42
-0.021773315392005149
10
9.3046251352452281
20
-198.86412242566738
42
0.19057705842417835
10
2.5569055238019245
20
-201.79291276867946
10
-16.591000190702779
20
-220.96930888904615
42
-0.19891236737965812
10
-23.659888671913887
20
-223.90349692032348
10
-93.375598160323563
20
-223.9553237968272
42
-0.19891236737965859
10
-100.44884139503203
20
-221.03164907050396
10
-112.16136136792484
20
-209.33653040939055
42
0.19877129600007565
10
-119.22917637001845
20
-206.41285312098842
10
-158.90929803173316
20
-206.42081214650324
42
0.30537562832945242
10
-186.70643591319646
20
-225.15206906836028
10
-192.07471492672724
20
-238.39712239072225
42
-0.3059480326190131
10
-199.50403684724029
20
-243.39211005764753
10
-200.65604681778396
20
-243.39234112742167
42
-0.30594803261901926
10
-208.08737192632771
20
-238.40033420410097
10
-213.46096388440913
20
-225.15743548262128
42
0.30537562832945025
10
-241.26561374737156
20
-206.43733114873029
10
-248.08745392868678
20
-206.43869947114936
42
0.41421356237309453
10
-268.08344193314304
20
-226.44271066204908
10
-268.07562946378351
20
-265.38020100326065
42
-0.41421356237309681
10
-274.07442553670103
20
-271.38140468881829
10
-292.82976341873024
20
-271.38516765460673
42
-0.37614909384541978
10
-298.77886098502972
20
-266.17419237574472
42
-0.065986868225417883
10
-298.80796599985956
20
15.255113988425199
42
-0.37599596506217636
10
-292.86316610734116
20
20.467318766209317
10
-274.18291790382932
20
20.477458841714462
42
-0.41421356237309431
10
-268.17966184798911
20
14.480716665497688
10
-268.15850899390807
20
-24.487490646978792
42
0.41421356237309592
10
-248.14765547444065
20
-44.476631234368107
10
-241.32581616094868
20
-44.472928180480992
42
0.30537562832945164
10
-213.53509056135078
20
-25.732158961434788
10
-208.17134489773437
20
-12.485269155319394
42
-0.30594803261901293
10
-200.74373291518046
20
-7.4877391426057374
10
-200.16772734845961
20
-7.4886326173251563
10
-199.59172309118682
20
-7.4871138047370991
42
-0.30594803261901604
10
-192.15868993514374
20
-12.476577111799028
10
-186.78056599364783
20
-25.717635979927156
42
0.30537562832945053
10
-158.96951092206146
20
-44.428223252348353
10
-119.28939430810189
20
-44.406683957214256
42
0.19877129599972984
10
-112.22375472926927
20
-41.477753242365559
10
-100.51993217825753
20
-29.77393069135389
42
-0.19891236737965662
10
-93.448864366392073
20
-26.844998503219379
10
-23.733135613854021
20
-26.844998503219376
42
-0.19891236737965801
10
-16.662067801988542
20
-29.7739306913539
10
2.5000884104106236
20
-48.936086903753065
42
0.19057705842417905
0
ENDSEC
0
SECTION
2
OBJECTS
0
DICTIONARY
5
C
100
AcDbDictionary
3
ACAD_GROUP
350
D
3
ACAD_MLINESTYLE
350
17
0
DICTIONARY
5
D
100
AcDbDictionary
0
DICTIONARY
5
1A
330
C
100
AcDbDictionary
0
DICTIONARY
5
17
100
AcDbDictionary
0
ENDSEC
0
EOF
